<svg id="Layer_1" data-name="Layer 1" xmlns="http://www.w3.org/2000/svg" viewBox="0 0 138.52 46.77"><defs><style>.cls-1{fill:#102757;}.cls-2{fill:#fff;}</style></defs><path class="cls-1" d="M0,0V46.77H54.39V0ZM53.29,45.67H1.1V1.1H53.29Z"/><path class="cls-1" d="M66.33,16.31,64.74,22.6H62.67L60,13.44h2.19l1.6,6.62,1.75-6.62H67.1l1.73,6.62,1.6-6.62h2.19L70,22.6H67.94Z"/><path class="cls-1" d="M74.37,13.44h6.48v1.68H76.32v2h4.44v1.67H76.32v2.13h4.53V22.6H74.37Z"/><path class="cls-1" d="M83.64,19.83a4,4,0,0,0,2.91,1.23c1.07,0,1.6-.51,1.6-1,0-.68-.8-.92-1.86-1.17-1.49-.34-3.42-.75-3.42-2.8,0-1.52,1.32-2.76,3.48-2.76a5.1,5.1,0,0,1,3.57,1.28L88.83,16a3.88,3.88,0,0,0-2.62-1c-.88,0-1.35.38-1.35.93s.77.81,1.83,1.06c1.51.34,3.43.79,3.43,2.83,0,1.67-1.19,2.94-3.66,2.94a5.31,5.31,0,0,1-3.89-1.46Z"/><path class="cls-1" d="M94.29,15.16H91.61V13.44h7.31v1.72H96.25V22.6h-2Z"/><path class="cls-1" d="M99.74,13.44H102l2.54,7,2.52-7h2.23l-3.53,9.16h-2.44Z"/><path class="cls-1" d="M110.94,13.44h2V22.6h-2Z"/><path class="cls-1" d="M115.52,13.44h2v7.44h3.87V22.6h-5.83Z"/><path class="cls-1" d="M123.53,13.44h2v7.44h3.88V22.6h-5.83Z"/><path class="cls-1" d="M131.54,13.44H138v1.68h-4.53v2h4.44v1.67h-4.44v2.13H138V22.6h-6.48Z"/><path class="cls-1" d="M66.34,31.26H61.87L61,33.32h-.8l3.44-8.4h.89L68,33.32h-.81Zm-4.25-.66h4l-2-5Z"/><path class="cls-1" d="M69.89,31.6a3.41,3.41,0,0,0,2.62,1.22c1.72,0,2.21-1,2.21-1.68,0-1.18-1.13-1.51-2.3-1.82C71.1,29,69.69,28.57,69.69,27c0-1.38,1.23-2.25,2.75-2.25A3.64,3.64,0,0,1,75.29,26l-.48.53a3,3,0,0,0-2.4-1.06c-1.12,0-2,.64-2,1.55s1,1.28,2.19,1.6c1.35.37,2.85.8,2.85,2.51,0,1.07-.72,2.37-3,2.37a3.86,3.86,0,0,1-3.07-1.33Z"/><path class="cls-1" d="M78,31.6a3.41,3.41,0,0,0,2.62,1.22c1.72,0,2.21-1,2.21-1.68,0-1.18-1.13-1.51-2.3-1.82s-2.73-.75-2.73-2.29c0-1.38,1.23-2.25,2.76-2.25A3.63,3.63,0,0,1,83.36,26l-.48.53a3,3,0,0,0-2.4-1.06c-1.12,0-2,.64-2,1.55s1,1.28,2.19,1.6c1.35.37,2.85.8,2.85,2.51,0,1.07-.72,2.37-3,2.37a3.88,3.88,0,0,1-3.08-1.33Z"/><path class="cls-1" d="M89.8,24.78a4.06,4.06,0,0,1,4.07,4.35,4.08,4.08,0,1,1-8.15,0A4.06,4.06,0,0,1,89.8,24.78Zm0,.66c-2,0-3.33,1.56-3.33,3.69s1.29,3.69,3.33,3.69,3.32-1.58,3.32-3.69S91.81,25.44,89.8,25.44Z"/><path class="cls-1" d="M96.09,29.13a4.17,4.17,0,0,1,4.23-4.35,3.83,3.83,0,0,1,3.09,1.49l-.61.39a3.07,3.07,0,0,0-2.48-1.22,3.47,3.47,0,0,0-3.47,3.69,3.49,3.49,0,0,0,3.47,3.69,3.07,3.07,0,0,0,2.48-1.22l.61.37a3.8,3.8,0,0,1-3.09,1.5A4.17,4.17,0,0,1,96.09,29.13Z"/><path class="cls-1" d="M105.62,24.92h.72v8.4h-.72Z"/><path class="cls-1" d="M114.45,31.26H110l-.84,2.06h-.81l3.44-8.4h.89l3.44,8.4h-.81Zm-4.24-.66h4l-2-5Z"/><path class="cls-1" d="M119.36,25.58h-2.74v-.66h6.22v.66h-2.75v7.74h-.73Z"/><path class="cls-1" d="M125.08,24.92h5.32v.66h-4.6v3.11h4.51v.65H125.8v3.33h4.6v.65h-5.32Z"/><path class="cls-1" d="M132.94,31.6a3.41,3.41,0,0,0,2.61,1.22c1.73,0,2.22-1,2.22-1.68,0-1.18-1.13-1.51-2.3-1.82-1.33-.37-2.74-.75-2.74-2.29,0-1.38,1.24-2.25,2.76-2.25A3.65,3.65,0,0,1,138.34,26l-.48.53a3,3,0,0,0-2.41-1.06c-1.12,0-2,.64-2,1.55s1,1.28,2.19,1.6c1.35.37,2.84.8,2.84,2.51,0,1.07-.71,2.37-3,2.37a3.86,3.86,0,0,1-3.07-1.33Z"/><path class="cls-1" d="M2.2,2.2V44.57h50V2.2Z"/><path class="cls-2" d="M31.44,13.44v1c2.44.23,2.59.74,2.17,2.55s-1.77,5.35-3.39,10.14l-.4,1.07c-1.66-4.39-3.9-10.06-5.59-14.63h-.58C22.24,18.24,20.39,24.12,19,28.4h-.07c-1.56-5.75-2.3-8.17-3.3-11.69-.42-1.53-.7-2,1.32-2.23v-1H8v1.05c1.77.27,2.86.69,3.58,3,1.7,5.32,2.47,8.49,4.55,15.79h2.45C20,29,21.55,24.5,23.11,20h.06l3.76,10.16c.34,1.11.45,1.9-1.54,2.14v1.07H33V32.24c-2.2-.27-2.26-.69-1.84-2.13.36-1.21.75-2.29,1.08-3.22H38c.45,1.23.91,2.5,1.21,3.4.48,1.32.33,1.68-1.44,2v1.08h8.6V32.23C44.46,32,44.06,31.6,43,29c-1.08-2.84-2.11-5.68-3.14-8.52l-1.33-3.69c-.54-1.53-.86-2,1.14-2.26l-.38-1Zm1.27,11.85c.78-2.14,1.53-4.3,2.37-6.5h.09l2.24,6.5Z"/></svg>